# xmcd
#
# Track frame offsets: 
#        150
#        13977
#        34285
#        51917
#        69030
#        83110
#        100352
#        119700
#        135677
#        150315
#        168382
#        187327
#        215290
#
# Disc length: 3235 seconds
#
# Revision: 2
# Processed by: cddbd v1.5.2PL0 Copyright (c) Steve Scherf et al.
# Submitted via: ExactAudioCopy v0.95a5
#
DISCID=b70ca10d
DTITLE=Tracy Lawrence - Strong
DYEAR=2004
DGENRE=Country
TTITLE0=It's All How You Look At It
TTITLE1=Strong
TTITLE2=Stones
TTITLE3=Paint Me A Birmingham
TTITLE4=Everywhere But Hollywood
TTITLE5=A Far Cry From You
TTITLE6=Bobby Darwin's Daughter
TTITLE7=What The Flames Feel Like
TTITLE8=Sawdust On Her Halo
TTITLE9=When Daddy Was A Strong Man
TTITLE10=Think Of Me
TTITLE11=The Questionnaire
TTITLE12=Text
EXTD=
EXTT0=
EXTT1=
EXTT2=
EXTT3=
EXTT4=
EXTT5=
EXTT6=
EXTT7=
EXTT8=
EXTT9=
EXTT10=
EXTT11=
EXTT12=
PLAYORDER=
